:SAMPLES-PER-SECOND 30
:FULLY-SPECIFIED
:DEGREES
50
root  76.1859 37.5711 -8.83919 126.233 -87.3261 -124.423
RightUpLeg  -1.955 -11.9936 0.876276
RightLeg  29.4559 -3.24848 -2.25353
RightFoot  -26.4935 -0.0516781 0.952448
RightToes  1.74622e-010 0 -3.6325e-017
Spine  11.7367 0.120408 11.0991
Spine1  8.0671 2.26557 -3.40184
HEad  -28.3871 2.1062 -4.85639
LeftShoulder1  7.78383 -11.029 -46.7171
LeftArm  -7.14841 25.7011 -21.8167
LeftForeArm  138.299 -79.6054 -118.749
LeftHand  -0.244104 0.0205437 5.32207
RightShoulder  6.59169 9.87114 42.9458
RightArm  -3.21707 -9.19901 32.5368
RightForeArm  138.08 65.9343 154.55
RightHand  0.311446 -11.86 -6.46674
LeftUpLeg  -29.9 9.21166 3.15915
LeftLeg  62.9444 6.37694 13.9515
LeftFoot  -15.3621 -0.0994183 -5.467
LeftToes  -6.36679e-011 4.33698e-011 -8.22343e-012
51
root  74.8954 38.2309 -8.90753 176.036 -87.6731 -172.748
RightUpLeg  1.31261 -12.318 -1.92911
RightLeg  23.1614 -1.50298 -0.866394
RightFoot  -23.1005 0.0152429 1.69218
RightToes  1.74622e-010 0 -3.6325e-017
Spine  9.89652 1.93679 10.677
Spine1  7.45172 4.665 -6.72992
HEad  -26.9251 -0.132937 -2.94059
LeftShoulder1  7.58297 -10.8299 -46.1283
LeftArm  -4.85865 31.3929 -21.5103
LeftForeArm  159.604 -75.2062 -142.136
LeftHand  -0.244104 0.0205437 5.32207
RightShoulder  6.44701 9.8102 42.1472
RightArm  -1.15377 -9.014 32.0286
RightForeArm  145.907 62.5239 158.672
RightHand  0.172452 -13.052 -3.47938
LeftUpLeg  -30.8923 12.1315 -0.468952
LeftLeg  57.8787 6.83082 12.1137
LeftFoot  -15.2546 -0.109085 -5.85659
LeftToes  -6.36679e-011 4.33698e-011 -8.22343e-012
52
root  73.5031 38.9622 -8.8808 -143.033 -86.9947 147.99
RightUpLeg  4.1705 -12.9015 -5.10207
RightLeg  17.3855 0.474716 0.725703
RightFoot  -17.3465 0.0733625 3.83413
RightToes  1.74622e-010 0 -3.6325e-017
Spine  8.04173 3.34372 10.3325
Spine1  6.17883 6.53525 -9.94644
HEad  -24.8699 -2.24573 -1.25252
LeftShoulder1  7.45054 -10.7682 -45.4978
LeftArm  -3.48996 37.3768 -21.3052
LeftForeArm  165.316 -71.3987 -150.715
LeftHand  -0.244104 0.0205437 5.32207
RightShoulder  6.32302 9.60878 41.9582
RightArm  2.00553 -10.2269 30.5726
RightForeArm  149.832 60.683 160.496
RightHand  0.125949 -12.0162 -3.23597
LeftUpLeg  -30.6344 14.1637 -4.25693
LeftLeg  49.7656 6.93646 9.17961
LeftFoot  -14.5259 -0.0734109 -5.76902
LeftToes  -6.36679e-011 4.33698e-011 -8.22343e-012
53
root  72.1083 39.5819 -8.7689 -128.763 -86.3625 135.188
RightUpLeg  5.51175 -13.35 -7.34942
RightLeg  14.748 1.59122 1.71848
RightFoot  -10.7068 -0.11458 7.12262
RightToes  1.74622e-010 0 -3.6325e-017
Spine  6.26648 4.1167 10.3927
Spine1  5.20426 7.55256 -12.2857
HEad  -22.6748 -3.11766 -0.912099
LeftShoulder1  7.35159 -10.7177 -45.036
LeftArm  -4.36994 43.0811 -22.312
LeftForeArm  166.892 -68.5834 -154.853
LeftHand  -0.244104 0.0205437 5.32207
RightShoulder  6.16465 9.4075 41.5144
RightArm  6.08349 -11.38 29.3875
RightForeArm  152.028 60.7041 160.671
RightHand  0.0886374 -10.5951 -3.13315
LeftUpLeg  -29.1928 14.6319 -6.87642
LeftLeg  40.4422 6.18127 6.00629
LeftFoot  -14.0822 -0.0703897 -6.48198
LeftToes  -6.36679e-011 4.33698e-011 -8.22343e-012
54
root  70.7576 39.9603 -8.62749 -128.824 -86.2745 135.869
RightUpLeg  4.99826 -14.6136 -8.24243
RightLeg  16.9766 3.01927 1.45489
RightFoot  -5.25449 -0.563039 9.9851
RightToes  1.74622e-010 0 -3.6325e-017
Spine  5.16058 4.42109 10.7121
Spine1  4.8944 7.93299 -13.383
HEad  -20.3752 -3.27469 -2.14448
LeftShoulder1  7.35725 -10.7424 -44.9904
LeftArm  -7.24428 47.0548 -24.959
LeftForeArm  166.744 -67.1627 -156.459
LeftHand  -0.244104 0.0205437 5.32207
RightShoulder  6.07795 9.40351 40.8989
RightArm  9.98458 -12.2305 28.5371
RightForeArm  153.107 62.6739 159.209
RightHand  0.0322997 -10.2518 -2.0344
LeftUpLeg  -26.3291 13.6575 -7.74612
LeftLeg  31.8371 5.4297 3.95863
LeftFoot  -13.3847 -0.0559989 -7.63696
LeftToes  -6.36679e-011 4.33698e-011 -8.22343e-012
55
root  69.4552 40.0141 -8.49133 -137.007 -86.2234 143.505
RightUpLeg  2.78419 -12.2489 -8.04705
RightLeg  24.0679 2.07449 0.698294
RightFoot  -0.775265 -1.01818 10.9704
RightToes  1.74622e-010 0 -3.6325e-017
Spine  5.20193 4.5359 10.7051
Spine1  4.94389 8.02881 -13.3878
HEad  -18.1914 -3.23593 -3.4356
LeftShoulder1  7.55055 -11.0209 -45.301
LeftArm  -10.3334 48.3373 -28.2534
LeftForeArm  166.787 -67.0201 -156.607
LeftHand  -0.244104 0.0205437 5.32207
RightShoulder  6.14972 9.63541 40.6297
RightArm  12.8985 -13.3741 27.4789
RightForeArm  151.621 65.9477 155.982
RightHand  -0.00549245 -10.2924 -1.15026
LeftUpLeg  -22.0488 12.4828 -7.65946
LeftLeg  25.3251 5.56548 3.19447
LeftFoot  -12.1687 0.0175559 -7.02308
LeftToes  -6.36679e-011 4.33698e-011 -8.22343e-012
